<svg width="208" height="176" viewBox="0 0 208 176" fill="none" xmlns="http://www.w3.org/2000/svg">
<path d="M160.521 171.151V0H115.521V115.87C107.724 125.792 93.9063 135.359 76.5417 135.359C57.4063 135.359 45.0052 127.568 45.0052 103.823V0H0V121.542C0 154.849 17.7188 175.401 55.2813 175.401C83.276 175.401 103.828 162.646 115.521 149.536V171.151H160.521Z" fill="#9AC6DF"/>
<path d="M207.162 144.526C205.105 133.938 192.204 133.76 189.022 143.662C185.839 133.76 172.938 133.938 170.881 144.526C169.011 154.13 189.022 169.287 189.022 169.287C189.022 169.287 209.027 154.13 207.162 144.526Z" fill="#9AC6DF"/>
</svg>
